<?xml version="1.0" encoding="UTF-8"?>
<!-- Created with Inkscape (http://www.inkscape.org/) -->
<svg width="431.33" height="137.01" version="1.1" viewBox="0 0 114.12 36.251" xmlns="http://www.w3.org/2000/svg">
 <g transform="translate(38.897 -101.66)" font-family="'Roboto Slab'" letter-spacing="0px" stroke-width=".26458" word-spacing="0px">
  <g aria-label="devotly">
   <path d="m-25.399 126.44q-0.79065 1.1627-1.8759 1.7673-1.0697 0.60462-2.4495 0.60462-3.1006 0-4.8214-2.2634-1.7053-2.2634-1.7053-5.9841v-0.32556q0-3.9688 1.7208-6.4027t4.8369-2.434q1.2557 0 2.2634 0.5581 1.0077 0.5426 1.7673 1.5503v-6.0151l-2.4185-0.46509v-2.7285h6.9453v21.006l2.1704 0.46509v2.713h-6.0927zm-6.3252-5.8756q0 2.2014 0.72864 3.4726 0.74414 1.2557 2.4185 1.2557 0.99219 0 1.7208-0.40308 0.72864-0.40307 1.1937-1.1627v-7.1158q-0.46509-0.80615-1.1937-1.2402-0.71314-0.44959-1.6898-0.44959-1.6588 0-2.4185 1.4728-0.75964 1.4728-0.75964 3.8447z"/>
   <path d="m-9.4927 128.81q-3.6277 0-5.7981-2.3254t-2.1704-5.9066v-0.62012q0-3.7362 2.0464-6.1547 2.0619-2.4185 5.519-2.403 3.3951 0 5.271 2.0464 1.8759 2.0464 1.8759 5.5346v2.465h-10.015l-0.03101 0.093q0.12402 1.6588 1.1007 2.7285 0.99219 1.0697 2.682 1.0697 1.5038 0 2.496-0.29456 0.99219-0.31005 2.1704-0.96118l1.2247 2.7905q-1.0387 0.82165-2.6975 1.3798-1.6433 0.55811-3.6742 0.55811zm-0.40308-13.922q-1.2557 0-1.9844 0.96119-0.72864 0.96118-0.89917 2.527l0.04651 0.0775h5.55v-0.40308q0-1.4418-0.68213-2.2944-0.66663-0.86817-2.0309-0.86817z"/>
   <path d="m6.3047 114.44-1.5813 0.29456 2.2169 7.5034 0.29456 1.5813h0.093018l0.32556-1.5813 2.1859-7.4879-1.6123-0.31006v-2.7285h7.6119v2.7285l-1.4573 0.23254-4.9454 13.813h-4.3253l-4.9609-13.813-1.4573-0.23254v-2.7285h7.6119z"/>
   <path d="m17.808 119.85q0-3.7052 2.0309-6.0772 2.0309-2.3719 5.3795-2.3719 3.3641 0 5.395 2.3719 2.0309 2.372 2.0309 6.0772v0.5116q0 3.7207-2.0309 6.0926-2.0154 2.3564-5.364 2.3564-3.3796 0-5.4105-2.3564-2.0309-2.372-2.0309-6.0926zm1.8604 0.5116q0 2.9146 1.4728 4.8989 1.4728 1.9844 4.1083 1.9844 2.589 0 4.0618-1.9844 1.4728-1.9844 1.4728-4.8989v-0.5116q0-2.868-1.4883-4.8679-1.4728-1.9999-4.0773-1.9999t-4.0773 1.9999q-1.4728 1.9999-1.4728 4.8679z"/>
   <path d="m39.931 107.42v4.2943h3.6897v1.5193h-3.6897v10.93q0 1.6433 0.58911 2.3409 0.60461 0.68213 1.5968 0.68213 0.44958 0 0.86816-0.031 0.43408-0.0465 0.99219-0.13952l0.27905 1.3798q-0.46509 0.20153-1.1317 0.31006-0.66663 0.10852-1.3333 0.10852-1.7673 0-2.7595-1.1162-0.97668-1.1162-0.97668-3.5347v-10.93h-2.8835v-1.5193h2.8835v-4.2943z"/>
   <path d="m46.659 105.68v-1.3798h4.3718v22.619l2.527 0.20154v1.3642h-6.8988v-1.3642l2.527-0.20154v-21.037z"/>
   <path d="m72.58 113.09-1.7053 0.13953-6.7748 17.937q-0.65112 1.7053-1.6898 2.899-1.0387 1.1937-3.0386 1.1937-0.32556 0-0.79065-0.0775-0.46509-0.062-0.68213-0.13953l0.21704-1.5503q0.18604 0.031 0.58911 0.062 0.41858 0.0465 0.58911 0.0465 1.2247 0 1.9379-0.85266 0.71313-0.85266 1.2557-2.2169l0.86816-2.2479-5.9531-15.053-1.7053-0.13953v-1.3798h5.7671v1.3798l-1.9999 0.15503 4.0928 10.697 0.58911 2.0154h0.09302l4.5889-12.712-2.0464-0.15503v-1.3798h5.7981z"/>
  </g>
 </g>
</svg>
